# Blender v2.78 (sub 0) OBJ File: ''
# www.blender.org
mtllib player.mtl
o Sphere
v 0.000000 0.866025 1.000000
v 0.000000 -0.000000 0.000000
v 0.866025 -0.000000 1.000000
v -0.000000 -0.866026 1.000000
v -0.000000 -0.000000 2.000000
v -0.866025 0.000000 1.000000
vn 0.6030 0.6030 -0.5222
vn 0.6030 0.6030 0.5222
vn 0.6030 -0.6030 -0.5222
vn 0.6030 -0.6030 0.5222
vn -0.6030 -0.6030 -0.5222
vn -0.6030 -0.6030 0.5222
vn -0.6030 0.6030 -0.5222
vn -0.6030 0.6030 0.5222
usemtl None
s off
f 2//1 1//1 3//1
f 1//2 5//2 3//2
f 2//3 3//3 4//3
f 3//4 5//4 4//4
f 2//5 4//5 6//5
f 4//6 5//6 6//6
f 2//7 6//7 1//7
f 6//8 5//8 1//8
